<?xml version="1.0" standalone="no"?>
<!DOCTYPE svg PUBLIC "-//W3C//DTD SVG 20010904//EN"
 "http://www.w3.org/TR/2001/REC-SVG-20010904/DTD/svg10.dtd">
<svg version="1.0" xmlns="http://www.w3.org/2000/svg"
 width="144.000000pt" height="144.000000pt" viewBox="0 0 144.000000 144.000000"
 preserveAspectRatio="xMidYMid meet">

<g transform="translate(0.000000,144.000000) scale(0.100000,-0.100000)"
fill="#000000" stroke="none">
<path fill="red" d="M659 1093 c-80 -49 -78 -177 2 -219 18 -9 61 -20 98 -25 86 -12 113
-37 119 -111 2 -29 -1 -66 -7 -81 -13 -33 -63 -57 -118 -57 -50 0 -120 -36
-138 -71 -19 -36 -19 -92 0 -129 42 -82 185 -77 228 7 8 15 20 54 27 86 14 70
34 86 123 97 35 4 78 15 95 24 65 33 83 129 36 185 -36 43 -57 53 -137 61 -85
10 -103 25 -122 109 -18 73 -38 107 -76 127 -37 19 -98 17 -130 -3z"/>
<path fill="#eee" d="M380 837 c-33 -17 -70 -74 -70 -109 0 -56 43 -112 98 -128 70 -19
149 34 159 107 13 101 -95 177 -187 130z"/>
<path fill="#eee" d="M69 575 c-81 -44 -84 -169 -5 -220 32 -21 95 -21 134 -1 82 42 83
172 2 220 -34 20 -96 20 -131 1z"/>
<path fill="#eee" d="M1239 573 c-80 -49 -78 -177 3 -219 39 -20 102 -20 134 1 80 52 76
178 -7 221 -37 19 -98 17 -130 -3z"/>
</g>
</svg>
